inDegrees=yes
name=ik_lifting_orientations
DataType=double
version=3
OpenSimVersion=4.5-2024-01-10-34fd6af
endheader
time	pelvis_tilt	pelvis_list	pelvis_rotation	pelvis_tx	pelvis_ty	pelvis_tz	hip_flexion_r	hip_adduction_r	hip_rotation_r	knee_angle_r	knee_angle_r_beta	ankle_angle_r	subtalar_angle_r	mtp_angle_r	hip_flexion_l	hip_adduction_l	hip_rotation_l	knee_angle_l	knee_angle_l_beta	ankle_angle_l	subtalar_angle_l	mtp_angle_l	lumbar_extension	lumbar_bending	lumbar_rotation	arm_flex_r	arm_add_r	arm_rot_r	elbow_flex_r	pro_sup_r	wrist_flex_r	wrist_dev_r	arm_flex_l	arm_add_l	arm_rot_l	elbow_flex_l	pro_sup_l	wrist_flex_l	wrist_dev_l
1.52	0.4669905989401492	-1.556399494353467	-112.0065791851416	0	0.9399999998679526	0	45.40191163470346	-11.66399180899529	0	60.91231216505777	1.063120402282854	-5.741818063191571	0	0	45.40191163470346	-11.66399180899529	0	60.91231216505777	1.063120402282854	-5.741818063191571	0	0	-4.740909679642928	-2.689501586479877	15.0695531064775	96.30130067788727	14.98225915310408	18.33136563194805	51.05367797521703	1.152413271253846	0	0	0	-10.13491836540235	0	88.88709651833233	1.152413271253846	0	0
1.53	0.5136831208716541	-1.403286959044158	-111.940201388449	0	0.9399999998679526	0	45.40183026599174	-11.66281674515335	0	60.9121667973443	1.063117865137628	-5.741136043158122	0	0	45.40183026599174	-11.66281674515335	0	60.9121667973443	1.063117865137628	-5.741136043158122	0	0	-4.426425200103814	-2.611625907306499	15.15031866013616	96.48472790235061	15.22119344883736	18.77992775134981	50.09942616510529	1.152250748121946	0	0	0	-10.13542461964404	0	88.88725344341796	1.152250748121946	0	0
1.54	0.5446224107544707	-0.9377895003781791	-111.6979112622557	0	0.9399999998679526	0	45.40170889503916	-11.66105934807489	0	60.9119505053864	1.063114090130817	-5.740115639949813	0	0	45.40170889503916	-11.66105934807489	0	60.9119505053864	1.063114090130817	-5.740115639949813	0	0	-3.750754500747871	-2.354478568206003	15.04280974781432	97.11463642749577	16.45612036070546	19.23712744244081	48.24867006540617	1.152008547420022	0	0	0	-10.13617847579509	0	88.88748730160026	1.152008547420022	0	0
1.55	0.596474728752633	-0.7181799217346939	-111.5638623273247	0	0.9399999998679526	0	45.401619271241	-11.65977243369099	0	60.91178982248227	1.063111285685088	-5.739369752008054	0	0	45.401619271241	-11.65977243369099	0	60.91178982248227	1.063111285685088	-5.739369752008054	0	0	-3.261242555292793	-2.205622590214948	15.04462379033723	97.20002837800652	16.67812876212506	19.50445590295242	47.32193139150876	1.151829269544267	0	0	0	-10.13673759356331	0	88.88766040433238	1.151829269544267	0	0
1.56	0.6170769853399721	-0.3971960712118577	-111.3300395789448	0	0.9399999998679526	0	45.40153629485036	-11.65861277014965	0	60.91163792988088	1.063108634659084	-5.738701176247154	0	0	45.40153629485036	-11.65861277014965	0	60.91163792988088	1.063108634659084	-5.738701176247154	0	0	-2.704046674083017	-1.981565632985761	14.84104927319464	97.39230732884027	17.06008747038896	19.62946931096602	46.0643924458028	1.151661932061536	0	0	0	-10.13726302470327	0	88.88782197801868	1.151661932061536	0	0
1.57	0.6301691731942241	-0.2616488248470478	-111.257340255202	0	0.9399999998679526	0	45.40141808008543	-11.65691277168122	0	60.91142641279687	1.063104942989544	-5.737715839869481	0	0	45.40141808008543	-11.65691277168122	0	60.91142641279687	1.063104942989544	-5.737715839869481	0	0	-2.408572215260416	-1.895064083186487	14.87776660899891	97.59008608535009	17.01336905402372	19.84552543530103	44.52733634563542	1.15142562166041	0	0	0	-10.13799956957194	0	88.88805014881007	1.15142562166041	0	0
1.58	0.6496593938868135	-0.08050528102643112	-111.1874091013036	0	0.9399999998679526	0	45.40126437766092	-11.65469906636726	0	60.91115187738752	1.063100151442738	-5.736432596989017	0	0	45.40126437766092	-11.65469906636726	0	60.91115187738752	1.063100151442738	-5.736432596989017	0	0	-2.113583689238238	-1.810072553087754	14.80830546380958	97.89645863545812	17.2486781602885	20.02297141010451	42.59961730636686	1.151118557198862	0	0	0	-10.13895613921865	0	88.88834663656031	1.151118557198862	0	0
1.59	0.6698535046725226	0.1055311123052288	-111.1978209475779	0	0.9399999998679526	0	45.40112805120057	-11.65273907466897	0	60.91090820393456	1.063095898538684	-5.735297058441046	0	0	45.40112805120057	-11.65273907466897	0	60.91090820393456	1.063095898538684	-5.735297058441046	0	0	-1.809648782316839	-1.713118684116096	14.76769278456022	98.32802489539215	17.58985857499416	20.1713253939138	40.14060703496002	1.150846108179454	0	0	0	-10.13980510609599	0	88.88860970118851	1.150846108179454	0	0
